<svg xmlns="http://www.w3.org/2000/svg" xmlns:xlink="http://www.w3.org/1999/xlink" width="1024" zoomAndPan="magnify" viewBox="0 0 768 767.999994" height="1024" preserveAspectRatio="xMidYMid meet" version="1.0"><defs><clipPath id="39fb311607"><path d="M 136.359375 136.976562 L 631 136.976562 L 631 631.226562 L 136.359375 631.226562 Z M 136.359375 136.976562 " clip-rule="nonzero"/></clipPath></defs><rect x="-76.8" width="921.6" fill="#ffffff" y="-76.799999" height="921.599993" fill-opacity="1"/><rect x="-76.8" width="921.6" fill="#d32f2f" y="-76.799999" height="921.599993" fill-opacity="1"/><path fill="#ffffff" d="M 231.226562 411.035156 L 216.523438 424.335938 L 216.523438 440.4375 L 297.207031 440.4375 L 297.207031 418.558594 L 254.328125 418.558594 L 254.328125 418.210938 L 264.828125 409.457031 C 281.28125 394.757812 295.105469 379.535156 295.105469 360.457031 C 295.105469 339.804688 280.929688 324.753906 255.207031 324.753906 C 239.800781 324.753906 226.5 330.003906 217.925781 336.480469 L 225.453125 355.558594 C 231.402344 351.003906 239.980469 346.105469 249.78125 346.105469 C 262.90625 346.105469 268.507812 353.453125 268.507812 362.734375 C 268.15625 376.035156 256.078125 388.808594 231.226562 411.035156 " fill-opacity="1" fill-rule="nonzero"/><path fill="#ffffff" d="M 335.1875 393.359375 L 335.1875 393.007812 L 350.414062 368.15625 C 354.265625 360.980469 357.238281 354.332031 360.914062 346.976562 L 361.613281 346.976562 C 361.089844 354.332031 360.738281 361.332031 360.738281 368.15625 L 360.738281 393.359375 Z M 385.941406 440.4375 L 385.941406 413.308594 L 399.59375 413.308594 L 399.59375 393.359375 L 385.941406 393.359375 L 385.941406 326.679688 L 353.386719 326.679688 L 310.332031 395.984375 L 310.332031 413.308594 L 360.738281 413.308594 L 360.738281 440.4375 L 385.941406 440.4375 " fill-opacity="1" fill-rule="nonzero"/><path fill="#ffffff" d="M 423.921875 447.4375 L 461.375 320.554688 L 443.699219 320.554688 L 406.242188 447.4375 L 423.921875 447.4375 " fill-opacity="1" fill-rule="nonzero"/><path fill="#ffffff" d="M 475.199219 440.4375 L 503.375 440.4375 L 550.277344 343.480469 L 550.277344 326.679688 L 469.945312 326.679688 L 469.945312 348.554688 L 522.101562 348.554688 L 522.101562 348.902344 L 475.199219 440.4375 " fill-opacity="1" fill-rule="nonzero"/><g clip-path="url(#39fb311607)"><path fill="#ffffff" d="M 630.21875 374.054688 L 586.535156 375.804688 C 588.800781 432.367188 567.15625 487.75 527.15625 527.75 C 447.890625 607.015625 318.914062 607.015625 239.652344 527.75 C 160.386719 448.484375 160.386719 319.507812 239.652344 240.242188 C 318.914062 160.976562 447.890625 160.976562 527.15625 240.242188 L 503.898438 263.5 L 581.328125 263.5 L 581.328125 186.066406 L 558.070312 209.332031 C 511.414062 162.675781 449.382812 136.980469 383.402344 136.980469 C 317.425781 136.980469 255.390625 162.675781 208.734375 209.332031 C 162.078125 255.984375 136.386719 318.015625 136.386719 383.996094 C 136.386719 449.976562 162.078125 512.007812 208.734375 558.664062 C 255.390625 605.316406 317.425781 631.011719 383.402344 631.011719 C 449.382812 631.011719 511.414062 605.316406 558.070312 558.664062 C 582.882812 533.851562 601.757812 504.777344 614.179688 472.238281 C 626.175781 440.820312 631.570312 407.789062 630.21875 374.054688 " fill-opacity="1" fill-rule="nonzero"/></g></svg>