<svg xmlns="http://www.w3.org/2000/svg" xmlns:xlink="http://www.w3.org/1999/xlink" width="1024" zoomAndPan="magnify" viewBox="0 0 768 767.999994" height="1024" preserveAspectRatio="xMidYMid meet" version="1.0"><defs><clipPath id="9ab4a733f3"><path d="M 431 140.898438 L 626.453125 140.898438 L 626.453125 336 L 431 336 Z M 431 140.898438 " clip-rule="nonzero"/></clipPath><clipPath id="eeebb30392"><path d="M 237 432 L 513 432 L 513 626.898438 L 237 626.898438 Z M 237 432 " clip-rule="nonzero"/></clipPath></defs><rect x="-76.8" width="921.6" fill="#ffffff" y="-76.799999" height="921.599993" fill-opacity="1"/><rect x="-76.8" width="921.6" fill="#d32f2f" y="-76.799999" height="921.599993" fill-opacity="1"/><path fill="#ffffff" d="M 188.859375 383.996094 C 188.859375 356.953125 194.304688 330.78125 205.039062 306.210938 L 190.183594 299.71875 C 178.550781 326.351562 172.652344 354.707031 172.652344 383.996094 C 172.652344 438.824219 193.601562 490.75 231.648438 530.210938 L 243.3125 518.960938 C 208.199219 482.539062 188.859375 434.609375 188.859375 383.996094 " fill-opacity="1" fill-rule="nonzero"/><g clip-path="url(#9ab4a733f3)"><path fill="#ffffff" d="M 591.914062 289.390625 L 583.546875 281.027344 L 572.089844 292.488281 L 580.449219 300.851562 C 568.445312 310.679688 553.574219 317.140625 537.300781 318.765625 L 537.300781 302.964844 L 521.09375 302.964844 L 521.09375 318.765625 C 504.820312 317.140625 489.953125 310.679688 477.949219 300.851562 L 486.308594 292.488281 L 474.847656 281.027344 L 466.484375 289.390625 C 456.65625 277.382812 450.195312 262.515625 448.574219 246.242188 L 464.371094 246.242188 L 464.371094 230.035156 L 448.574219 230.035156 C 450.195312 213.761719 456.65625 198.890625 466.484375 186.886719 L 474.847656 195.246094 L 486.308594 183.789062 L 477.949219 175.425781 C 489.953125 165.597656 504.820312 159.136719 521.09375 157.511719 L 521.09375 173.3125 L 537.300781 173.3125 L 537.300781 157.511719 C 553.574219 159.136719 568.445312 165.597656 580.449219 175.425781 L 572.089844 183.789062 L 583.546875 195.246094 L 591.914062 186.886719 C 601.742188 198.890625 608.203125 213.761719 609.824219 230.035156 L 594.023438 230.035156 L 594.023438 246.242188 L 609.824219 246.242188 C 608.203125 262.515625 601.742188 277.382812 591.914062 289.390625 Z M 529.199219 140.898438 C 475.582031 140.898438 431.957031 184.519531 431.957031 238.136719 C 431.957031 291.753906 475.582031 335.378906 529.199219 335.378906 C 582.816406 335.378906 626.4375 291.753906 626.4375 238.136719 C 626.4375 184.519531 582.816406 140.898438 529.199219 140.898438 " fill-opacity="1" fill-rule="nonzero"/></g><path fill="#ffffff" d="M 521.09375 234.78125 L 499.160156 256.71875 L 510.617188 268.175781 L 534.929688 243.867188 C 536.445312 242.347656 537.300781 240.285156 537.300781 238.136719 L 537.300781 189.519531 L 521.09375 189.519531 L 521.09375 234.78125 " fill-opacity="1" fill-rule="nonzero"/><path fill="#ffffff" d="M 162.898438 263.34375 L 158.394531 222.824219 C 158.140625 220.503906 158.855469 218.269531 160.410156 216.527344 C 161.96875 214.785156 164.113281 213.828125 166.449219 213.828125 L 188.859375 213.828125 C 191.550781 213.828125 194.0625 212.496094 195.570312 210.265625 C 197.078125 208.039062 197.382812 205.210938 196.378906 202.714844 L 189.066406 184.425781 C 188.050781 181.886719 188.347656 179.136719 189.878906 176.871094 C 191.410156 174.609375 193.855469 173.3125 196.589844 173.3125 L 200.476562 173.3125 L 222.425781 209.894531 C 223.890625 212.332031 226.53125 213.828125 229.375 213.828125 L 253.6875 213.828125 L 253.6875 254.34375 L 229.375 254.34375 C 227.226562 254.34375 225.164062 255.199219 223.644531 256.71875 L 212.1875 268.175781 C 210.65625 269.707031 208.617188 270.550781 206.453125 270.550781 L 170.949219 270.550781 C 166.816406 270.550781 163.355469 267.453125 162.898438 263.34375 Z M 269.890625 205.726562 L 302.304688 205.726562 L 302.304688 270.550781 L 269.890625 270.550781 Z M 223.644531 279.636719 L 232.730469 270.550781 L 253.6875 270.550781 L 253.6875 278.65625 C 253.6875 283.128906 257.3125 286.757812 261.789062 286.757812 L 310.410156 286.757812 C 314.882812 286.757812 318.511719 283.128906 318.511719 278.65625 L 318.511719 197.621094 C 318.511719 193.148438 314.882812 189.519531 310.410156 189.519531 L 261.789062 189.519531 C 257.3125 189.519531 253.6875 193.148438 253.6875 197.621094 L 233.960938 197.621094 L 212.015625 161.039062 C 210.550781 158.601562 207.910156 157.105469 205.066406 157.105469 L 196.589844 157.105469 C 188.515625 157.105469 180.988281 161.097656 176.457031 167.789062 C 171.933594 174.476562 171.019531 182.945312 174.015625 190.445312 L 176.890625 197.621094 L 166.449219 197.621094 C 159.542969 197.621094 152.941406 200.574219 148.335938 205.71875 C 143.730469 210.863281 141.523438 217.753906 142.289062 224.613281 L 146.792969 265.128906 C 148.160156 277.460938 158.546875 286.757812 170.949219 286.757812 L 206.453125 286.757812 C 212.949219 286.757812 219.050781 284.230469 223.644531 279.636719 " fill-opacity="1" fill-rule="nonzero"/><g clip-path="url(#eeebb30392)"><path fill="#ffffff" d="M 350.925781 497.445312 C 346.449219 497.445312 342.820312 501.074219 342.820312 505.546875 C 342.820312 526.804688 359.273438 544.289062 380.109375 545.9375 L 364.851562 561.195312 L 287.851562 537.503906 C 281.394531 528.085938 277.996094 517.125 277.996094 505.546875 C 277.996094 474.269531 303.441406 448.824219 334.71875 448.824219 C 363.242188 448.824219 386.90625 469.992188 390.851562 497.445312 Z M 413.378906 499.820312 C 411.859375 498.300781 409.796875 497.445312 407.648438 497.445312 L 407.191406 497.445312 C 403.140625 461.03125 372.191406 432.617188 334.71875 432.617188 C 294.507812 432.617188 261.789062 465.335938 261.789062 505.546875 C 261.789062 514.914062 263.617188 524.171875 267.078125 532.78125 C 259.65625 533.265625 252.613281 537.117188 248.34375 543.519531 L 238.839844 557.777344 C 237.496094 559.796875 237.121094 562.316406 237.832031 564.636719 C 238.539062 566.960938 240.253906 568.839844 242.496094 569.765625 L 380.253906 626.488281 C 381.246094 626.894531 382.289062 627.097656 383.339844 627.097656 C 384.582031 627.097656 385.824219 626.8125 386.964844 626.242188 L 433.875 602.789062 L 512.992188 602.789062 L 512.992188 586.582031 L 431.957031 586.582031 C 430.699219 586.582031 429.457031 586.875 428.335938 587.4375 L 383.015625 610.09375 L 257.808594 558.539062 L 261.828125 552.511719 C 263.804688 549.550781 267.554688 548.210938 270.957031 549.257812 L 364.75 578.117188 C 367.617188 579.003906 370.742188 578.226562 372.863281 576.105469 L 405.273438 543.691406 C 407.59375 541.371094 408.285156 537.890625 407.03125 534.859375 C 405.777344 531.832031 402.820312 529.859375 399.546875 529.859375 L 383.339844 529.859375 C 372.773438 529.859375 363.761719 523.082031 360.417969 513.652344 L 404.292969 513.652344 L 426.230469 535.585938 C 427.75 537.105469 429.808594 537.960938 431.957031 537.960938 L 512.992188 537.960938 L 512.992188 521.753906 L 435.3125 521.753906 L 413.378906 499.820312 " fill-opacity="1" fill-rule="nonzero"/></g><path fill="#ffffff" d="M 342.28125 342.261719 L 347.703125 329.167969 C 348.699219 326.769531 348.484375 324.042969 347.132812 321.832031 L 341.6875 312.949219 L 344.703125 309.933594 L 353.585938 315.378906 C 355.796875 316.730469 358.523438 316.945312 360.921875 315.949219 L 374.015625 310.527344 C 376.414062 309.53125 378.191406 307.453125 378.796875 304.925781 L 381.210938 294.863281 L 385.46875 294.863281 L 387.882812 304.925781 C 388.488281 307.453125 390.261719 309.53125 392.660156 310.527344 L 405.757812 315.949219 C 408.15625 316.945312 410.882812 316.730469 413.09375 315.378906 L 421.976562 309.933594 L 424.992188 312.949219 L 419.546875 321.832031 C 418.191406 324.042969 417.980469 326.769531 418.972656 329.167969 L 424.398438 342.261719 C 425.390625 344.660156 427.472656 346.4375 429.996094 347.042969 L 440.0625 349.457031 L 440.0625 353.714844 L 429.996094 356.128906 C 427.472656 356.730469 425.390625 358.507812 424.398438 360.90625 L 418.972656 374.003906 C 417.980469 376.402344 418.191406 379.128906 419.546875 381.339844 L 424.992188 390.222656 L 421.976562 393.238281 L 413.09375 387.792969 C 410.882812 386.4375 408.15625 386.226562 405.757812 387.21875 L 392.660156 392.644531 C 390.261719 393.636719 388.488281 395.71875 387.882812 398.242188 L 385.46875 408.308594 L 381.210938 408.308594 L 378.796875 398.242188 C 378.191406 395.71875 376.414062 393.636719 374.015625 392.644531 L 360.921875 387.21875 C 358.523438 386.226562 355.796875 386.4375 353.585938 387.792969 L 344.703125 393.238281 L 341.6875 390.222656 L 347.132812 381.339844 C 348.484375 379.128906 348.699219 376.402344 347.703125 374.003906 L 342.28125 360.90625 C 341.285156 358.507812 339.207031 356.730469 336.679688 356.128906 L 326.617188 353.714844 L 326.617188 349.457031 L 336.679688 347.042969 C 339.207031 346.4375 341.285156 344.660156 342.28125 342.261719 Z M 331.152344 326.777344 L 328.886719 332.246094 L 316.625 335.183594 C 312.976562 336.058594 310.410156 339.320312 310.410156 343.066406 L 310.410156 360.101562 C 310.410156 363.851562 312.976562 367.109375 316.625 367.984375 L 328.886719 370.925781 L 331.152344 376.394531 L 324.53125 387.203125 C 322.570312 390.394531 323.058594 394.515625 325.710938 397.164062 L 337.757812 409.214844 C 340.410156 411.859375 344.527344 412.347656 347.71875 410.394531 L 358.53125 403.769531 L 364 406.035156 L 366.9375 418.296875 C 367.8125 421.945312 371.074219 424.515625 374.820312 424.515625 L 391.859375 424.515625 C 395.605469 424.515625 398.863281 421.945312 399.738281 418.296875 L 402.679688 406.035156 L 408.148438 403.769531 L 418.957031 410.394531 C 422.148438 412.351562 426.269531 411.859375 428.921875 409.214844 L 440.96875 397.164062 C 443.613281 394.515625 444.105469 390.394531 442.148438 387.203125 L 435.523438 376.394531 L 437.789062 370.925781 L 450.050781 367.984375 C 453.699219 367.109375 456.269531 363.851562 456.269531 360.101562 L 456.269531 343.066406 C 456.269531 339.320312 453.699219 336.058594 450.050781 335.183594 L 437.789062 332.246094 L 435.523438 326.777344 L 442.148438 315.964844 C 444.105469 312.773438 443.617188 308.65625 440.96875 306.003906 L 428.921875 293.957031 C 426.269531 291.304688 422.148438 290.816406 418.957031 292.777344 L 408.148438 299.398438 L 402.679688 297.132812 L 399.738281 284.871094 C 398.863281 281.222656 395.605469 278.65625 391.859375 278.65625 L 374.820312 278.65625 C 371.074219 278.65625 367.8125 281.222656 366.9375 284.871094 L 364 297.132812 L 358.53125 299.398438 L 347.71875 292.777344 C 344.527344 290.816406 340.410156 291.304688 337.757812 293.957031 L 325.710938 306.003906 C 323.0625 308.65625 322.570312 312.773438 324.53125 315.964844 L 331.152344 326.777344 " fill-opacity="1" fill-rule="nonzero"/><path fill="#ffffff" d="M 383.339844 343.480469 C 387.804688 343.480469 391.441406 347.117188 391.441406 351.585938 C 391.441406 356.050781 387.804688 359.6875 383.339844 359.6875 C 378.871094 359.6875 375.234375 356.050781 375.234375 351.585938 C 375.234375 347.117188 378.871094 343.480469 383.339844 343.480469 Z M 383.339844 375.894531 C 396.742188 375.894531 407.648438 364.988281 407.648438 351.585938 C 407.648438 338.179688 396.742188 327.273438 383.339844 327.273438 C 369.933594 327.273438 359.027344 338.179688 359.027344 351.585938 C 359.027344 364.988281 369.933594 375.894531 383.339844 375.894531 " fill-opacity="1" fill-rule="nonzero"/><path fill="#ffffff" d="M 573.929688 345.089844 C 576.507812 357.8125 577.820312 370.902344 577.820312 383.996094 C 577.820312 433.21875 559.390625 480.183594 525.933594 516.242188 L 537.816406 527.265625 C 574.0625 488.203125 594.023438 437.324219 594.023438 383.996094 C 594.023438 369.820312 592.609375 355.648438 589.8125 341.871094 L 573.929688 345.089844 " fill-opacity="1" fill-rule="nonzero"/><path fill="#ffffff" d="M 383.339844 189.519531 C 396.433594 189.519531 409.523438 190.828125 422.246094 193.40625 L 425.464844 177.527344 C 411.6875 174.726562 397.515625 173.3125 383.339844 173.3125 C 366.242188 173.3125 349.230469 175.363281 332.78125 179.421875 L 336.65625 195.15625 C 351.839844 191.414062 367.546875 189.519531 383.339844 189.519531 " fill-opacity="1" fill-rule="nonzero"/><path fill="#ffffff" d="M 238.699219 294.308594 C 221.996094 321.183594 213.167969 352.203125 213.167969 383.996094 C 213.167969 415.792969 221.996094 446.8125 238.699219 473.6875 L 252.464844 465.136719 C 237.359375 440.828125 229.375 412.765625 229.375 383.996094 C 229.375 355.230469 237.359375 327.167969 252.464844 302.859375 L 238.699219 294.308594 " fill-opacity="1" fill-rule="nonzero"/><path fill="#ffffff" d="M 502.460938 505.523438 C 535.378906 473.25 553.507812 430.09375 553.507812 383.996094 C 553.507812 372.546875 552.359375 361.097656 550.105469 349.96875 L 534.222656 353.199219 C 536.265625 363.265625 537.300781 373.628906 537.300781 383.996094 C 537.300781 425.703125 520.898438 464.75 491.113281 493.949219 L 502.460938 505.523438 " fill-opacity="1" fill-rule="nonzero"/><path fill="#ffffff" d="M 383.339844 230.035156 C 393.710938 230.035156 404.070312 231.070312 414.136719 233.113281 L 417.367188 217.230469 C 406.238281 214.976562 394.789062 213.828125 383.339844 213.828125 C 365.925781 213.828125 348.753906 216.453125 332.289062 221.617188 L 337.148438 237.082031 C 352.035156 232.40625 367.574219 230.035156 383.339844 230.035156 " fill-opacity="1" fill-rule="nonzero"/><path fill="#ffffff" d="M 294.203125 505.546875 C 294.203125 515.425781 297.800781 524.949219 304.332031 532.351562 L 316.480469 521.625 C 312.566406 517.1875 310.410156 511.480469 310.410156 505.546875 C 310.410156 492.140625 321.3125 481.238281 334.71875 481.238281 C 338.996094 481.238281 343.195312 482.363281 346.867188 484.484375 L 354.984375 470.457031 C 348.847656 466.90625 341.839844 465.03125 334.71875 465.03125 C 312.378906 465.03125 294.203125 483.207031 294.203125 505.546875 " fill-opacity="1" fill-rule="nonzero"/></svg>