<svg xmlns="http://www.w3.org/2000/svg" xmlns:xlink="http://www.w3.org/1999/xlink" width="1024" zoomAndPan="magnify" viewBox="0 0 768 767.999994" height="1024" preserveAspectRatio="xMidYMid meet" version="1.0"><defs><g/><clipPath id="953220114e"><rect x="0" width="663" y="0" height="180"/></clipPath></defs><rect x="-76.8" width="921.6" fill="#ffffff" y="-76.799999" height="921.599993" fill-opacity="1"/><rect x="-76.8" width="921.6" fill="#d32f2f" y="-76.799999" height="921.599993" fill-opacity="1"/><g transform="matrix(1, 0, 0, 1, 53, 294)"><g clip-path="url(#953220114e)"><g fill="#ffffff" fill-opacity="1"><g transform="translate(0.803326, 141.98541)"><g><path d="M 106.34375 -102.6875 L 106.34375 0 L 86.84375 0 L 35.640625 -62.34375 L 35.640625 0 L 12.171875 0 L 12.171875 -102.6875 L 31.828125 -102.6875 L 82.875 -40.34375 L 82.875 -102.6875 Z M 106.34375 -102.6875 "/></g></g></g><g fill="#ffffff" fill-opacity="1"><g transform="translate(119.322589, 141.98541)"><g><path d="M 35.9375 -83.609375 L 35.9375 -56.46875 L 83.46875 -56.46875 L 83.46875 -37.40625 L 35.9375 -37.40625 L 35.9375 0 L 12.171875 0 L 12.171875 -102.6875 L 89.765625 -102.6875 L 89.765625 -83.609375 Z M 35.9375 -83.609375 "/></g></g></g><g fill="#ffffff" fill-opacity="1"><g transform="translate(213.052555, 141.98541)"><g><path d="M 56.625 -102.6875 C 65.71875 -102.6875 73.613281 -101.171875 80.3125 -98.140625 C 87.007812 -95.109375 92.164062 -90.800781 95.78125 -85.21875 C 99.40625 -79.644531 101.21875 -73.046875 101.21875 -65.421875 C 101.21875 -57.890625 99.40625 -51.3125 95.78125 -45.6875 C 92.164062 -40.070312 87.007812 -35.769531 80.3125 -32.78125 C 73.613281 -29.800781 65.71875 -28.3125 56.625 -28.3125 L 35.9375 -28.3125 L 35.9375 0 L 12.171875 0 L 12.171875 -102.6875 Z M 55.296875 -47.671875 C 62.441406 -47.671875 67.867188 -49.210938 71.578125 -52.296875 C 75.296875 -55.378906 77.15625 -59.753906 77.15625 -65.421875 C 77.15625 -71.191406 75.296875 -75.613281 71.578125 -78.6875 C 67.867188 -81.769531 62.441406 -83.3125 55.296875 -83.3125 L 35.9375 -83.3125 L 35.9375 -47.671875 Z M 55.296875 -47.671875 "/></g></g></g><g fill="#ffffff" fill-opacity="1"><g transform="translate(320.423972, 141.98541)"><g><path d="M 79.796875 -22 L 32.125 -22 L 23.03125 0 L -1.3125 0 L 44.453125 -102.6875 L 67.921875 -102.6875 L 113.828125 0 L 88.890625 0 Z M 72.3125 -40.046875 L 56.03125 -79.359375 L 39.75 -40.046875 Z M 72.3125 -40.046875 "/></g></g></g><g fill="#ffffff" fill-opacity="1"><g transform="translate(432.782588, 141.98541)"><g/></g></g><g fill="#ffffff" fill-opacity="1"><g transform="translate(474.29366, 141.98541)"><g><path d="M 41.8125 -104.4375 C 56.1875 -104.4375 67.429688 -100.0625 75.546875 -91.3125 C 83.660156 -82.5625 87.71875 -69.972656 87.71875 -53.546875 C 87.71875 -41.898438 85.539062 -31.921875 81.1875 -23.609375 C 76.832031 -15.296875 70.695312 -8.988281 62.78125 -4.6875 C 54.863281 -0.382812 45.722656 1.765625 35.359375 1.765625 C 29.878906 1.765625 24.644531 1.15625 19.65625 -0.0625 C 14.664062 -1.289062 10.410156 -3.03125 6.890625 -5.28125 L 15.703125 -22.734375 C 20.679688 -19.316406 27.082031 -17.609375 34.90625 -17.609375 C 43.613281 -17.609375 50.507812 -20.171875 55.59375 -25.296875 C 60.675781 -30.429688 63.414062 -37.84375 63.8125 -47.53125 C 57.644531 -41.363281 49.132812 -38.28125 38.28125 -38.28125 C 31.726562 -38.28125 25.765625 -39.597656 20.390625 -42.234375 C 15.015625 -44.878906 10.757812 -48.625 7.625 -53.46875 C 4.5 -58.3125 2.9375 -63.910156 2.9375 -70.265625 C 2.9375 -77.109375 4.644531 -83.117188 8.0625 -88.296875 C 11.488281 -93.484375 16.160156 -97.46875 22.078125 -100.25 C 27.992188 -103.039062 34.570312 -104.4375 41.8125 -104.4375 Z M 43.5625 -56.03125 C 48.75 -56.03125 52.976562 -57.472656 56.25 -60.359375 C 59.53125 -63.242188 61.171875 -66.9375 61.171875 -71.4375 C 61.171875 -75.9375 59.582031 -79.601562 56.40625 -82.4375 C 53.226562 -85.269531 48.847656 -86.6875 43.265625 -86.6875 C 38.179688 -86.6875 34.050781 -85.316406 30.875 -82.578125 C 27.695312 -79.847656 26.109375 -76.132812 26.109375 -71.4375 C 26.109375 -66.738281 27.695312 -62.992188 30.875 -60.203125 C 34.050781 -57.421875 38.28125 -56.03125 43.5625 -56.03125 Z M 43.5625 -56.03125 "/></g></g></g><g fill="#ffffff" fill-opacity="1"><g transform="translate(567.730252, 141.98541)"><g><path d="M 55.15625 -64.390625 C 61.707031 -64.390625 67.671875 -63.066406 73.046875 -60.421875 C 78.429688 -57.785156 82.6875 -54.046875 85.8125 -49.203125 C 88.9375 -44.367188 90.5 -38.773438 90.5 -32.421875 C 90.5 -25.578125 88.785156 -19.5625 85.359375 -14.375 C 81.941406 -9.1875 77.273438 -5.195312 71.359375 -2.40625 C 65.441406 0.375 58.867188 1.765625 51.640625 1.765625 C 37.265625 1.765625 26.015625 -2.632812 17.890625 -11.4375 C 9.773438 -20.238281 5.71875 -32.804688 5.71875 -49.140625 C 5.71875 -60.773438 7.914062 -70.75 12.3125 -79.0625 C 16.71875 -87.375 22.859375 -93.679688 30.734375 -97.984375 C 38.609375 -102.285156 47.726562 -104.4375 58.09375 -104.4375 C 63.5625 -104.4375 68.8125 -103.828125 73.84375 -102.609375 C 78.882812 -101.390625 83.164062 -99.65625 86.6875 -97.40625 L 77.890625 -79.9375 C 72.804688 -83.363281 66.398438 -85.078125 58.671875 -85.078125 C 49.972656 -85.078125 43.078125 -82.535156 37.984375 -77.453125 C 32.898438 -72.367188 30.164062 -64.984375 29.78125 -55.296875 C 35.84375 -61.359375 44.300781 -64.390625 55.15625 -64.390625 Z M 50.3125 -15.984375 C 55.394531 -15.984375 59.523438 -17.351562 62.703125 -20.09375 C 65.878906 -22.832031 67.46875 -26.550781 67.46875 -31.25 C 67.46875 -35.9375 65.878906 -39.671875 62.703125 -42.453125 C 59.523438 -45.242188 55.296875 -46.640625 50.015625 -46.640625 C 44.835938 -46.640625 40.582031 -45.195312 37.25 -42.3125 C 33.925781 -39.425781 32.265625 -35.738281 32.265625 -31.25 C 32.265625 -26.75 33.878906 -23.078125 37.109375 -20.234375 C 40.335938 -17.398438 44.738281 -15.984375 50.3125 -15.984375 Z M 50.3125 -15.984375 "/></g></g></g></g></g></svg>