<svg xmlns="http://www.w3.org/2000/svg" xmlns:xlink="http://www.w3.org/1999/xlink" width="1024" zoomAndPan="magnify" viewBox="0 0 768 767.999994" height="1024" preserveAspectRatio="xMidYMid meet" version="1.0"><defs><clipPath id="4eede1e156"><path d="M 120 301 L 619 301 L 619 664.324219 L 120 664.324219 Z M 120 301 " clip-rule="nonzero"/></clipPath><clipPath id="4db0faded8"><path d="M 345 103.324219 L 529 103.324219 L 529 287 L 345 287 Z M 345 103.324219 " clip-rule="nonzero"/></clipPath></defs><rect x="-76.8" width="921.6" fill="#ffffff" y="-76.799999" height="921.599993" fill-opacity="1"/><rect x="-76.8" width="921.6" fill="#d32f2f" y="-76.799999" height="921.599993" fill-opacity="1"/><g clip-path="url(#4eede1e156)"><path fill="#ffffff" d="M 561.921875 664.355469 L 509.46875 664.355469 C 506.347656 664.355469 503.53125 662.511719 502.296875 659.652344 L 486.535156 622.984375 C 465.117188 627.15625 395.324219 638.320312 341.917969 619.09375 L 314.628906 660.828125 C 313.191406 663.039062 310.738281 664.355469 308.105469 664.355469 L 263.453125 664.355469 C 259.199219 664.355469 255.753906 660.992188 255.652344 656.738281 L 253.929688 584.511719 C 236.832031 571.363281 154.230469 507.726562 136.726562 490.222656 C 115.242188 468.746094 121.574219 420.648438 121.855469 418.625 C 122.382812 414.753906 125.6875 411.875 129.574219 411.875 L 129.597656 411.875 L 160.59375 411.917969 C 160.898438 411.917969 161.222656 411.9375 161.527344 411.976562 C 161.425781 411.957031 178.28125 412.324219 199.957031 378.226562 C 207.414062 366.535156 210.027344 356.183594 207.757812 347.492188 C 205.105469 337.320312 196.515625 332.4375 196.433594 332.398438 C 193.3125 330.714844 191.710938 327.128906 192.542969 323.707031 C 192.765625 322.792969 198.277344 301.441406 228.324219 301.441406 C 255.269531 301.441406 291.714844 350.894531 298.746094 360.800781 C 301.238281 364.328125 300.425781 369.191406 296.902344 371.679688 C 293.375 374.195312 288.535156 373.363281 286.023438 369.835938 C 270.460938 347.917969 242.261719 317.039062 228.324219 317.039062 C 218.171875 317.039062 212.90625 320.445312 210.230469 323.320312 C 214.726562 327.3125 220.359375 333.957031 222.871094 343.5625 C 226.277344 356.628906 222.992188 371.113281 213.128906 386.613281 C 187.4375 426.992188 164.808594 427.761719 160.269531 427.515625 L 136.648438 427.496094 C 135.675781 442.226562 136.503906 467.9375 147.769531 479.199219 C 166.1875 497.597656 265.378906 573.609375 266.390625 574.378906 C 268.253906 575.820312 269.390625 578.027344 269.449219 580.398438 L 271.070312 648.753906 L 303.871094 648.753906 L 332.316406 605.257812 C 334.382812 602.117188 338.394531 600.902344 341.839844 602.320312 C 400.066406 626.507812 488.539062 606.65625 489.429688 606.433594 C 493.058594 605.5625 496.84375 607.484375 498.34375 610.949219 L 514.59375 648.753906 L 554.121094 648.753906 L 554.121094 573.347656 C 554.121094 571.242188 554.972656 569.214844 556.492188 567.753906 C 559.875 564.453125 638.746094 486.089844 584.105469 390.90625 C 509.246094 260.535156 322.835938 340.96875 320.949219 341.796875 C 317 343.539062 312.402344 341.757812 310.65625 337.808594 C 308.914062 333.855469 310.699219 329.257812 314.648438 327.515625 C 316.65625 326.644531 515.890625 240.761719 597.636719 383.148438 C 652.746094 479.140625 583.71875 561.355469 569.71875 576.488281 L 569.71875 656.554688 C 569.71875 660.871094 566.234375 664.355469 561.921875 664.355469 " fill-opacity="1" fill-rule="nonzero"/></g><g clip-path="url(#4db0faded8)"><path fill="#ffffff" d="M 436.695312 119.042969 C 394.9375 119.042969 360.941406 153.039062 360.941406 194.792969 C 360.941406 236.589844 394.9375 270.566406 436.695312 270.566406 C 478.46875 270.566406 512.464844 236.589844 512.464844 194.792969 C 512.464844 153.039062 478.46875 119.042969 436.695312 119.042969 Z M 436.695312 286.164062 C 386.328125 286.164062 345.324219 245.179688 345.324219 194.792969 C 345.324219 144.425781 386.328125 103.433594 436.695312 103.433594 C 487.082031 103.433594 528.066406 144.425781 528.066406 194.792969 C 528.066406 245.179688 487.082031 286.164062 436.695312 286.164062 " fill-opacity="1" fill-rule="nonzero"/></g><path fill="#ffffff" d="M 443.480469 234.929688 L 429.925781 234.929688 C 416.71875 234.929688 405.960938 224.171875 405.960938 210.960938 C 405.960938 206.644531 409.445312 203.160156 413.761719 203.160156 C 418.074219 203.160156 421.558594 206.644531 421.558594 210.960938 C 421.558594 215.558594 425.328125 219.328125 429.925781 219.328125 L 443.480469 219.328125 C 448.082031 219.328125 451.828125 215.558594 451.828125 210.960938 C 451.828125 206.363281 448.082031 202.613281 443.480469 202.613281 L 429.925781 202.613281 C 416.71875 202.613281 405.960938 191.855469 405.960938 178.644531 C 405.960938 165.417969 416.71875 154.679688 429.925781 154.679688 L 443.480469 154.679688 C 456.691406 154.679688 467.429688 165.417969 467.429688 178.644531 C 467.429688 182.960938 463.945312 186.445312 459.628906 186.445312 C 455.3125 186.445312 451.828125 182.960938 451.828125 178.644531 C 451.828125 174.027344 448.082031 170.300781 443.480469 170.300781 L 429.925781 170.300781 C 425.328125 170.300781 421.558594 174.027344 421.558594 178.644531 C 421.558594 183.246094 425.328125 186.992188 429.925781 186.992188 L 443.480469 186.992188 C 456.691406 186.992188 467.429688 197.75 467.429688 210.960938 C 467.429688 224.171875 456.691406 234.929688 443.480469 234.929688 " fill-opacity="1" fill-rule="nonzero"/><path fill="#ffffff" d="M 436.695312 170.300781 C 432.378906 170.300781 428.894531 166.792969 428.894531 162.480469 L 428.894531 147.546875 C 428.894531 143.230469 432.378906 139.746094 436.695312 139.746094 C 441.007812 139.746094 444.496094 143.230469 444.496094 147.546875 L 444.496094 162.480469 C 444.496094 166.792969 441.007812 170.300781 436.695312 170.300781 " fill-opacity="1" fill-rule="nonzero"/><path fill="#ffffff" d="M 436.695312 249.859375 C 432.378906 249.859375 428.894531 246.375 428.894531 242.058594 L 428.894531 227.128906 C 428.894531 222.8125 432.378906 219.328125 436.695312 219.328125 C 441.007812 219.328125 444.496094 222.8125 444.496094 227.128906 L 444.496094 242.058594 C 444.496094 246.375 441.007812 249.859375 436.695312 249.859375 " fill-opacity="1" fill-rule="nonzero"/><path fill="#ffffff" d="M 507.5625 374.539062 C 506.609375 374.539062 505.636719 374.355469 504.6875 373.992188 C 439.023438 347.957031 380.433594 373.585938 379.867188 373.847656 C 375.933594 375.589844 371.316406 373.847656 369.554688 369.9375 C 367.789062 366.007812 369.511719 361.390625 373.441406 359.628906 C 376.058594 358.433594 438.417969 330.9375 510.441406 359.464844 C 514.453125 361.066406 516.394531 365.582031 514.816406 369.59375 C 513.601562 372.652344 510.664062 374.539062 507.5625 374.539062 " fill-opacity="1" fill-rule="nonzero"/></svg>